<?xml version="1.0" encoding="UTF-8"?>
<svg id="Layer_2" data-name="Layer 2" xmlns="http://www.w3.org/2000/svg" viewBox="0 0 86 13.33">
  <defs>
    <linearGradient id='a' gradientUnits='objectBoundingBox' x1='0' y1='0' x2='1' y2='1'>
      <stop offset='0' stop-color='#ff00ff'>
        <animate attributeName="stop-color"
          values="#ff00ff;#9900ff;#0000ff;#0099ff;#00ffff;#00ff99;#00ff00;#99ff00;#ffff00;#ff9900;#ff0000;#ff9900;#ffff00;#99ff00;#00ff00;#00ff99;#00ffff;#0099ff;#0000ff;#9900ff;#ff00ff;"
          dur="20s" repeatCount="indefinite">
        </animate>
      </stop>
      <stop offset='.5' stop-color='#9900ff'>
        <animate attributeName="stop-color"
          values="#9900ff;#0000ff;#0099ff;#00ffff;#00ff99;#00ff00;#99ff00;#ffff00;#ff9900;#ff0000;#ff0099;#ff00ff;#ff0099;#ff0000;#ff9900;#ffff00;#99ff00;#00ff00;#00ff99;#00ffff;#0099ff;#0000ff;#9900ff;"
          dur="20s" repeatCount="indefinite">
        </animate>
      </stop>
      <stop offset='1' stop-color="#0000ff;">
        <animate attributeName="stop-color"
          values="#0000ff;#0099ff;#00ffff;#00ff99;#00ff00;#99ff00;#ffff00;#ff9900;#ff0000;#ff0099;#ff00ff;#9900ff;#ff00ff;#ff0099;#ff0000;#ff9900;#ffff00;#99ff00;#00ff00;#00ff99;#00ffff;#0099ff;#0000ff;"
          dur="20s" repeatCount="indefinite">
        </animate>
      </stop>
      <animateTransform attributeName="gradientTransform" type="rotate" from="0 .5 .5" to="360 .5 .5" dur="20s"
        repeatCount="indefinite" />
    </linearGradient>
    <linearGradient id='b' gradientUnits='objectBoundingBox' x1='0' y1='1' x2='1' y2='1'>
      <stop offset='0' stop-color='#ff0099'>
        <animate attributeName="stop-color"
          values="#ff0099;#ff00ff;#9900ff;#0000ff;#0099ff;#00ffff;#00ff99;#00ff00;#99ff00;#ffff00;#ff9900;#ff0000;#ff9900;#ffff00;#99ff00;#00ff00;#00ff99;#00ffff;#0099ff;#0000ff;#9900ff;#ff00ff;#ff0099;"
          dur="20s" repeatCount="indefinite">
        </animate>
      </stop>
      <stop offset='1' stop-color='#0099ff' stop-opacity="0">
        <animate attributeName="stop-color"
          values=";#0099ff;#00ffff;#00ff99;#00ff00;#99ff00;#ffff00;#ff9900;#ff0000;#ff0099;#ff00ff;#9900ff;#0000ff;#9900ff;#ff00ff;#ff0099;#ff0000;#ff9900;#ffff00;#99ff00;#00ff00;#00ff99;#00ffff;#0099ff;"
          dur="20s" repeatCount="indefinite">
        </animate>
      </stop>
      <animateTransform attributeName="gradientTransform" type="rotate" values="360 .5 .5; 0 .5 .5" class="ignore"
        dur="10s" repeatCount="indefinite" />
    </linearGradient>
    <style>
      :root {
        --fill-1: #222;
        --fill-2: #222;
        --alt-1: url(#a);
        --alt-2: url(#b);
      }
      @media (prefers-color-scheme: dark) {
        :root {
          --fill-1: url(#a);
          --fill-2: url(#b);
          --alt-1: #222;
          --alt-2: #222;
        }
      }
    </style>
  </defs>
  <path fill="var(--fill-1)" d="M28.83,11.02c0,.23-.19.43-.44.43s-.43-.2-.43-.43c0-.25.18-.44.43-.44s.44.19.44.44ZM48.21,10.58c-.25,0-.43.19-.43.44,0,.23.18.43.43.43s.44-.2.44-.43c0-.25-.19-.44-.44-.44Z"/>
  <path fill="var(--fill-2)" d="M28.83,11.02c0,.23-.19.43-.44.43s-.43-.2-.43-.43c0-.25.18-.44.43-.44s.44.19.44.44ZM48.21,10.58c-.25,0-.43.19-.43.44,0,.23.18.43.43.43s.44-.2.44-.43c0-.25-.19-.44-.44-.44Z"/>
  <path fill="var(--alt-1)" d="M15.45,8.79c0,2.04-1.28,2.69-2.69,2.69-.73,0-1.52-.16-2.06-.43l.18-.54c.47.23,1.15.41,1.85.41,1.06,0,2.03-.47,2.03-2.17,0-1.34-.64-2.28-3.31-2.28l.66-3.5h3.19l-.12.58h-2.52l-.46,2.41c2.41,0,3.25,1.19,3.25,2.84ZM21.58,8.97c0,1.68-1.03,2.51-2.59,2.51s-2.57-.83-2.57-2.51c0-1.42.7-2.19,1.69-2.45-.49-.11-1.19-.54-1.19-1.7,0-1.3.89-1.98,2.06-1.98s2.06.67,2.06,1.99c0,1.14-.66,1.58-1.19,1.69,1,.23,1.71,1.02,1.71,2.45ZM18.99,6.31c.73,0,1.43-.42,1.43-1.48s-.71-1.48-1.42-1.48-1.44.41-1.44,1.48.7,1.48,1.43,1.48ZM20.92,8.94c0-1.39-.85-2.01-1.92-2.01s-1.92.64-1.92,2.01.85,1.99,1.91,1.99,1.93-.6,1.93-1.99ZM23.82,5.95l.46-2.41h2.52l.12-.58h-3.19l-.66,3.5c2.67,0,3.31.94,3.31,2.28,0,1.7-.97,2.17-2.03,2.17-.7,0-1.38-.18-1.85-.41l-.18.54c.54.28,1.33.43,2.06.43,1.4,0,2.69-.65,2.69-2.69,0-1.66-.84-2.84-3.25-2.84ZM33.06,7.72c.98-1.24,1.4-2.1,1.4-2.78,0-1.6-1.12-2.1-2.28-2.1s-2.24.52-2.28,2.09v.12h.66v-.12c.04-1.14.8-1.52,1.63-1.52s1.58.43,1.58,1.51c0,.77-.59,1.67-1.34,2.58l-2.48,3.3v.56h4.64v-.56h-3.83l2.29-3.07ZM40.98,7.1c0,1.69-.19,4.38-2.66,4.38s-2.7-2.67-2.7-4.39.23-4.25,2.7-4.25,2.66,2.51,2.66,4.26ZM40.3,7.09c0-1.45-.13-3.67-1.98-3.67s-2,2.22-2,3.67c0,1.54.14,3.83,2,3.83s1.98-2.3,1.98-3.83ZM45.19,6.61c.64-.11,1.36-.68,1.36-1.8s-.79-1.97-2.17-1.97c-1.01,0-1.74.5-2.01,1.25l.58.16c.28-.52.76-.86,1.44-.86,1.03,0,1.52.71,1.52,1.44,0,.78-.53,1.49-1.46,1.49h-.79l.12.59h.65c.96,0,1.77.7,1.77,2.04s-.83,1.98-1.87,1.98-1.65-.61-1.86-1.3l-.62.12c.28,1.08,1.15,1.74,2.48,1.74s2.57-.74,2.57-2.52c0-1.52-.89-2.25-1.69-2.35ZM53.69,2.96h-.68v6.02h-2.76l1.51-4.89h-.64l-1.71,5.46h3.6v1.81h.68v-1.81h.91v-.56h-.91V2.96ZM60.52,8.57c0,2-1.08,2.9-2.55,2.9s-2.54-.9-2.54-2.85c0-1.5.82-2.69,1.72-4.34l.73-1.32h.67l-1.81,3.37c.35-.4.9-.65,1.51-.65,1.25,0,2.28.95,2.28,2.89ZM59.83,8.56c0-1.68-.85-2.36-1.82-2.36-1.14,0-1.9,1.04-1.9,2.38,0,1.67.79,2.35,1.86,2.35,1.01,0,1.86-.67,1.86-2.36ZM61.53,4.84l.68-.66v7.17h.66V2.84l-1.73,1.58.38.42ZM65.38,5.95l.46-2.41h2.52l.12-.58h-3.19l-.66,3.5c2.67,0,3.31.94,3.31,2.28,0,1.7-.97,2.17-2.03,2.17-.7,0-1.38-.18-1.85-.41l-.18.54c.54.28,1.33.43,2.06.43,1.4,0,2.69-.65,2.69-2.69,0-1.66-.84-2.84-3.25-2.84Z"/>
  <path fill="var(--alt-2)" d="M15.45,8.79c0,2.04-1.28,2.69-2.69,2.69-.73,0-1.52-.16-2.06-.43l.18-.54c.47.23,1.15.41,1.85.41,1.06,0,2.03-.47,2.03-2.17,0-1.34-.64-2.28-3.31-2.28l.66-3.5h3.19l-.12.58h-2.52l-.46,2.41c2.41,0,3.25,1.19,3.25,2.84ZM21.58,8.97c0,1.68-1.03,2.51-2.59,2.51s-2.57-.83-2.57-2.51c0-1.42.7-2.19,1.69-2.45-.49-.11-1.19-.54-1.19-1.7,0-1.3.89-1.98,2.06-1.98s2.06.67,2.06,1.99c0,1.14-.66,1.58-1.19,1.69,1,.23,1.71,1.02,1.71,2.45ZM18.99,6.31c.73,0,1.43-.42,1.43-1.48s-.71-1.48-1.42-1.48-1.44.41-1.44,1.48.7,1.48,1.43,1.48ZM20.92,8.94c0-1.39-.85-2.01-1.92-2.01s-1.92.64-1.92,2.01.85,1.99,1.91,1.99,1.93-.6,1.93-1.99ZM23.82,5.95l.46-2.41h2.52l.12-.58h-3.19l-.66,3.5c2.67,0,3.31.94,3.31,2.28,0,1.7-.97,2.17-2.03,2.17-.7,0-1.38-.18-1.85-.41l-.18.54c.54.28,1.33.43,2.06.43,1.4,0,2.69-.65,2.69-2.69,0-1.66-.84-2.84-3.25-2.84ZM33.06,7.72c.98-1.24,1.4-2.1,1.4-2.78,0-1.6-1.12-2.1-2.28-2.1s-2.24.52-2.28,2.09v.12h.66v-.12c.04-1.14.8-1.52,1.63-1.52s1.58.43,1.58,1.51c0,.77-.59,1.67-1.34,2.58l-2.48,3.3v.56h4.64v-.56h-3.83l2.29-3.07ZM40.98,7.1c0,1.69-.19,4.38-2.66,4.38s-2.7-2.67-2.7-4.39.23-4.25,2.7-4.25,2.66,2.51,2.66,4.26ZM40.3,7.09c0-1.45-.13-3.67-1.98-3.67s-2,2.22-2,3.67c0,1.54.14,3.83,2,3.83s1.98-2.3,1.98-3.83ZM45.19,6.61c.64-.11,1.36-.68,1.36-1.8s-.79-1.97-2.17-1.97c-1.01,0-1.74.5-2.01,1.25l.58.16c.28-.52.76-.86,1.44-.86,1.03,0,1.52.71,1.52,1.44,0,.78-.53,1.49-1.46,1.49h-.79l.12.59h.65c.96,0,1.77.7,1.77,2.04s-.83,1.98-1.87,1.98-1.65-.61-1.86-1.3l-.62.12c.28,1.08,1.15,1.74,2.48,1.74s2.57-.74,2.57-2.52c0-1.52-.89-2.25-1.69-2.35ZM53.69,2.96h-.68v6.02h-2.76l1.51-4.89h-.64l-1.71,5.46h3.6v1.81h.68v-1.81h.91v-.56h-.91V2.96ZM60.52,8.57c0,2-1.08,2.9-2.55,2.9s-2.54-.9-2.54-2.85c0-1.5.82-2.69,1.72-4.34l.73-1.32h.67l-1.81,3.37c.35-.4.9-.65,1.51-.65,1.25,0,2.28.95,2.28,2.89ZM59.83,8.56c0-1.68-.85-2.36-1.82-2.36-1.14,0-1.9,1.04-1.9,2.38,0,1.67.79,2.35,1.86,2.35,1.01,0,1.86-.67,1.86-2.36ZM61.53,4.84l.68-.66v7.17h.66V2.84l-1.73,1.58.38.42ZM65.38,5.95l.46-2.41h2.52l.12-.58h-3.19l-.66,3.5c2.67,0,3.31.94,3.31,2.28,0,1.7-.97,2.17-2.03,2.17-.7,0-1.38-.18-1.85-.41l-.18.54c.54.28,1.33.43,2.06.43,1.4,0,2.69-.65,2.69-2.69,0-1.66-.84-2.84-3.25-2.84Z"/>
</svg>
