<?xml version="1.0" encoding="UTF-8"?>
<svg id="Layer_2" data-name="Layer 2" xmlns="http://www.w3.org/2000/svg" viewBox="0 0 86 14.5">
  <defs>
    <linearGradient id='a' gradientUnits='objectBoundingBox' x1='0' y1='0' x2='1' y2='1'>
      <stop offset='0' stop-color='#ff00ff'>
        <animate attributeName="stop-color"
          values="#ff00ff;#9900ff;#0000ff;#0099ff;#00ffff;#00ff99;#00ff00;#99ff00;#ffff00;#ff9900;#ff0000;#ff9900;#ffff00;#99ff00;#00ff00;#00ff99;#00ffff;#0099ff;#0000ff;#9900ff;#ff00ff;"
          dur="20s" repeatCount="indefinite">
        </animate>
      </stop>
      <stop offset='.5' stop-color='#9900ff'>
        <animate attributeName="stop-color"
          values="#9900ff;#0000ff;#0099ff;#00ffff;#00ff99;#00ff00;#99ff00;#ffff00;#ff9900;#ff0000;#ff0099;#ff00ff;#ff0099;#ff0000;#ff9900;#ffff00;#99ff00;#00ff00;#00ff99;#00ffff;#0099ff;#0000ff;#9900ff;"
          dur="20s" repeatCount="indefinite">
        </animate>
      </stop>
      <stop offset='1' stop-color="#0000ff;">
        <animate attributeName="stop-color"
          values="#0000ff;#0099ff;#00ffff;#00ff99;#00ff00;#99ff00;#ffff00;#ff9900;#ff0000;#ff0099;#ff00ff;#9900ff;#ff00ff;#ff0099;#ff0000;#ff9900;#ffff00;#99ff00;#00ff00;#00ff99;#00ffff;#0099ff;#0000ff;"
          dur="20s" repeatCount="indefinite">
        </animate>
      </stop>
      <animateTransform attributeName="gradientTransform" type="rotate" from="0 .5 .5" to="360 .5 .5" dur="20s"
        repeatCount="indefinite" />
    </linearGradient>
    <linearGradient id='b' gradientUnits='objectBoundingBox' x1='0' y1='1' x2='1' y2='1'>
      <stop offset='0' stop-color='#ff0099'>
        <animate attributeName="stop-color"
          values="#ff0099;#ff00ff;#9900ff;#0000ff;#0099ff;#00ffff;#00ff99;#00ff00;#99ff00;#ffff00;#ff9900;#ff0000;#ff9900;#ffff00;#99ff00;#00ff00;#00ff99;#00ffff;#0099ff;#0000ff;#9900ff;#ff00ff;#ff0099;"
          dur="20s" repeatCount="indefinite">
        </animate>
      </stop>
      <stop offset='1' stop-color='#0099ff' stop-opacity="0">
        <animate attributeName="stop-color"
          values=";#0099ff;#00ffff;#00ff99;#00ff00;#99ff00;#ffff00;#ff9900;#ff0000;#ff0099;#ff00ff;#9900ff;#0000ff;#9900ff;#ff00ff;#ff0099;#ff0000;#ff9900;#ffff00;#99ff00;#00ff00;#00ff99;#00ffff;#0099ff;"
          dur="20s" repeatCount="indefinite">
        </animate>
      </stop>
      <animateTransform attributeName="gradientTransform" type="rotate" values="360 .5 .5; 0 .5 .5" class="ignore"
        dur="10s" repeatCount="indefinite" />
    </linearGradient>
    <style>
      :root {
        --fill-1: #222;
        --fill-2: #222;
        --alt-1: url(#a);
        --alt-2: url(#b);
      }
      @media (prefers-color-scheme: dark) {
        :root {
          --fill-1: url(#a);
          --fill-2: url(#b);
          --alt-1: #222;
          --alt-2: #222;
        }
      }
    </style>
  </defs>
  <path fill="var(--fill-1)" d="M31.39,4.78c-1.54,0-2.36,1.51-2.36,2.71,0,1.07.7,1.7,1.63,1.7.58,0,1.16-.25,1.5-.89.1.56.41.9,1.09.9,1.4,0,2.07-1.45,2.07-2.79,0-2.3-1.92-3.63-3.97-3.63-2.29,0-4.37,1.67-4.37,4.39s1.92,4.15,4.4,4.15c1.2,0,2.35-.36,3.27-.92l-.22-.52c-.86.55-1.9.88-3.01.88-2.09,0-3.83-1.2-3.83-3.59s1.74-3.84,3.77-3.84c1.77,0,3.32,1.12,3.32,3.14,0,1.08-.44,2.17-1.38,2.17-.38,0-.58-.19-.58-.59,0-.46.24-.82.24-1.59,0-.94-.52-1.68-1.59-1.68ZM30.73,8.64c-.74,0-1.09-.49-1.09-1.19,0-.95.66-2.13,1.76-2.13.68,0,.98.44.98,1.2,0,1.01-.54,2.12-1.65,2.12ZM62.45,10.73c0,.23-.19.43-.44.43s-.43-.2-.43-.43c0-.25.18-.44.43-.44s.44.19.44.44Z"/>
  <path fill="var(--fill-2)" d="M31.39,4.78c-1.54,0-2.36,1.51-2.36,2.71,0,1.07.7,1.7,1.63,1.7.58,0,1.16-.25,1.5-.89.1.56.41.9,1.09.9,1.4,0,2.07-1.45,2.07-2.79,0-2.3-1.92-3.63-3.97-3.63-2.29,0-4.37,1.67-4.37,4.39s1.92,4.15,4.4,4.15c1.2,0,2.35-.36,3.27-.92l-.22-.52c-.86.55-1.9.88-3.01.88-2.09,0-3.83-1.2-3.83-3.59s1.74-3.84,3.77-3.84c1.77,0,3.32,1.12,3.32,3.14,0,1.08-.44,2.17-1.38,2.17-.38,0-.58-.19-.58-.59,0-.46.24-.82.24-1.59,0-.94-.52-1.68-1.59-1.68ZM30.73,8.64c-.74,0-1.09-.49-1.09-1.19,0-.95.66-2.13,1.76-2.13.68,0,.98.44.98,1.2,0,1.01-.54,2.12-1.65,2.12ZM62.45,10.73c0,.23-.19.43-.44.43s-.43-.2-.43-.43c0-.25.18-.44.43-.44s.44.19.44.44Z"/>
  <path fill="var(--alt-1)" d="M16.33,11.07v-2.33c0-.82-.23-1.24-.94-1.24-.74,0-1.1.44-1.1,1.24v2.33h-.61v-2.33c0-.82-.24-1.24-.94-1.24s-1.1.42-1.1,1.22v2.34h-.62v-3.95h.62v.6c.13-.38.6-.72,1.26-.72.7,0,1.09.36,1.26.88.2-.52.58-.88,1.36-.88,1.13,0,1.43.77,1.43,1.74v2.33h-.61ZM21.22,7.12h.62v3.95h-.62v-.74c-.08.29-.61.86-1.52.86-1.08,0-1.86-.73-1.86-2.1s.82-2.09,1.87-2.09c.92,0,1.4.54,1.51.86v-.74ZM21.25,9.1c0-1.02-.62-1.58-1.4-1.58-.73,0-1.36.49-1.36,1.57s.59,1.58,1.36,1.58,1.4-.49,1.4-1.57ZM23.22,11.07l1.22-1.59,1.22,1.59h.67l-1.56-2.01,1.48-1.93h-.66l-1.15,1.52-1.16-1.52h-.66l1.48,1.93-1.56,2.01h.68ZM37.12,11.13c.19,0,.3-.01.41-.05l-.05-.44c-.07.01-.11.01-.14.01-.41,0-.44-.2-.44-.7V2.43h-.62v7.52c0,.79.19,1.17.85,1.17ZM40.96,9.39c0,.9-.47,1.28-1.12,1.28-.71,0-1.07-.36-1.07-1.28v-2.27h-.62v2.27c0,1.07.38,1.8,1.55,1.8.61,0,1.09-.35,1.26-.71v.59h.61v-3.95h-.61v2.27ZM45.91,11.07v-.82h-.02c0,.25-.55.94-1.54.94-1.08,0-1.86-.73-1.86-2.1s.82-2.09,1.87-2.09c.92,0,1.4.54,1.51.86V2.43h.62v8.63h-.59ZM45.91,9.1v-.07c-.04-.97-.65-1.51-1.4-1.51s-1.36.49-1.36,1.57.59,1.58,1.36,1.58,1.4-.49,1.4-1.57ZM49.29,11.19c-1.08,0-1.86-.73-1.86-2.1s.82-2.09,1.87-2.09c.92,0,1.4.54,1.51.86V2.43h.62v8.63h-.59v-.82h-.02c0,.25-.55.94-1.54.94ZM50.85,9.1v-.07c-.04-.97-.65-1.51-1.4-1.51s-1.36.49-1.36,1.57.59,1.58,1.36,1.58,1.4-.49,1.4-1.57ZM56.15,9.24h-3.15c0,.91.56,1.44,1.48,1.44.58,0,1-.18,1.31-.35l.25.41c-.26.16-.84.44-1.62.44-1.35,0-2.05-.86-2.05-2.08s.73-2.11,1.93-2.11,1.87.79,1.87,2.11c0,.04,0,.11-.01.13ZM55.54,8.8c-.06-.88-.58-1.33-1.25-1.33s-1.21.48-1.28,1.33h2.53ZM57.68,7.78v-.66h-.62v3.95h.62v-2.17c0-.95.43-1.39,1.14-1.39s1.04.43,1.04,1.39v2.17h.61v-2.21c0-1.27-.52-1.86-1.46-1.86-.76,0-1.19.38-1.33.78ZM65.21,11.19c-1.08,0-1.86-.73-1.86-2.1s.82-2.09,1.87-2.09c.92,0,1.4.54,1.51.86V2.43h.62v8.63h-.59v-.82h-.02c0,.25-.55.94-1.54.94ZM65.37,10.67c.76,0,1.4-.49,1.4-1.57v-.07c-.04-.97-.65-1.51-1.4-1.51s-1.36.49-1.36,1.57.59,1.58,1.36,1.58ZM72.09,9.11s0,.11-.01.13h-3.15c0,.91.56,1.44,1.48,1.44.58,0,1-.18,1.31-.35l.25.41c-.26.16-.84.44-1.62.44-1.35,0-2.05-.86-2.05-2.08s.73-2.11,1.93-2.11,1.87.79,1.87,2.11ZM71.46,8.8c-.06-.88-.58-1.33-1.25-1.33s-1.21.48-1.28,1.33h2.53ZM75.75,7.12l-1.19,2.59c-.12.26-.13.3-.14.44-.01-.14-.05-.18-.16-.44l-1.18-2.59h-.65l1.98,4.07,1.97-4.07h-.64Z"/>
  <path fill="var(--alt-2)" d="M16.33,11.07v-2.33c0-.82-.23-1.24-.94-1.24-.74,0-1.1.44-1.1,1.24v2.33h-.61v-2.33c0-.82-.24-1.24-.94-1.24s-1.1.42-1.1,1.22v2.34h-.62v-3.95h.62v.6c.13-.38.6-.72,1.26-.72.7,0,1.09.36,1.26.88.2-.52.58-.88,1.36-.88,1.13,0,1.43.77,1.43,1.74v2.33h-.61ZM21.22,7.12h.62v3.95h-.62v-.74c-.08.29-.61.86-1.52.86-1.08,0-1.86-.73-1.86-2.1s.82-2.09,1.87-2.09c.92,0,1.4.54,1.51.86v-.74ZM21.25,9.1c0-1.02-.62-1.58-1.4-1.58-.73,0-1.36.49-1.36,1.57s.59,1.58,1.36,1.58,1.4-.49,1.4-1.57ZM23.22,11.07l1.22-1.59,1.22,1.59h.67l-1.56-2.01,1.48-1.93h-.66l-1.15,1.52-1.16-1.52h-.66l1.48,1.93-1.56,2.01h.68ZM37.12,11.13c.19,0,.3-.01.41-.05l-.05-.44c-.07.01-.11.01-.14.01-.41,0-.44-.2-.44-.7V2.43h-.62v7.52c0,.79.19,1.17.85,1.17ZM40.96,9.39c0,.9-.47,1.28-1.12,1.28-.71,0-1.07-.36-1.07-1.28v-2.27h-.62v2.27c0,1.07.38,1.8,1.55,1.8.61,0,1.09-.35,1.26-.71v.59h.61v-3.95h-.61v2.27ZM45.91,11.07v-.82h-.02c0,.25-.55.94-1.54.94-1.08,0-1.86-.73-1.86-2.1s.82-2.09,1.87-2.09c.92,0,1.4.54,1.51.86V2.43h.62v8.63h-.59ZM45.91,9.1v-.07c-.04-.97-.65-1.51-1.4-1.51s-1.36.49-1.36,1.57.59,1.58,1.36,1.58,1.4-.49,1.4-1.57ZM49.29,11.19c-1.08,0-1.86-.73-1.86-2.1s.82-2.09,1.87-2.09c.92,0,1.4.54,1.51.86V2.43h.62v8.63h-.59v-.82h-.02c0,.25-.55.94-1.54.94ZM50.85,9.1v-.07c-.04-.97-.65-1.51-1.4-1.51s-1.36.49-1.36,1.57.59,1.58,1.36,1.58,1.4-.49,1.4-1.57ZM56.15,9.24h-3.15c0,.91.56,1.44,1.48,1.44.58,0,1-.18,1.31-.35l.25.41c-.26.16-.84.44-1.62.44-1.35,0-2.05-.86-2.05-2.08s.73-2.11,1.93-2.11,1.87.79,1.87,2.11c0,.04,0,.11-.01.13ZM55.54,8.8c-.06-.88-.58-1.33-1.25-1.33s-1.21.48-1.28,1.33h2.53ZM57.68,7.78v-.66h-.62v3.95h.62v-2.17c0-.95.43-1.39,1.14-1.39s1.04.43,1.04,1.39v2.17h.61v-2.21c0-1.27-.52-1.86-1.46-1.86-.76,0-1.19.38-1.33.78ZM65.21,11.19c-1.08,0-1.86-.73-1.86-2.1s.82-2.09,1.87-2.09c.92,0,1.4.54,1.51.86V2.43h.62v8.63h-.59v-.82h-.02c0,.25-.55.94-1.54.94ZM65.37,10.67c.76,0,1.4-.49,1.4-1.57v-.07c-.04-.97-.65-1.51-1.4-1.51s-1.36.49-1.36,1.57.59,1.58,1.36,1.58ZM72.09,9.11s0,.11-.01.13h-3.15c0,.91.56,1.44,1.48,1.44.58,0,1-.18,1.31-.35l.25.41c-.26.16-.84.44-1.62.44-1.35,0-2.05-.86-2.05-2.08s.73-2.11,1.93-2.11,1.87.79,1.87,2.11ZM71.46,8.8c-.06-.88-.58-1.33-1.25-1.33s-1.21.48-1.28,1.33h2.53ZM75.75,7.12l-1.19,2.59c-.12.26-.13.3-.14.44-.01-.14-.05-.18-.16-.44l-1.18-2.59h-.65l1.98,4.07,1.97-4.07h-.64Z"/>
</svg>
